<mxfile host="app.diagrams.net" modified="2023-08-07T08:44:36.113Z" agent="Mozilla/5.0 (X11; Linux x86_64; rv:109.0) Gecko/20100101 Firefox/115.0" etag="PJZdRH_SYrXJmi6B-lbS" version="21.6.6" type="github">
  <diagram name="Page-1" id="4ZCYVXNfwt_bql2Io-Zv">
    <mxGraphModel dx="1434" dy="778" grid="1" gridSize="10" guides="1" tooltips="1" connect="1" arrows="1" fold="1" page="1" pageScale="1" pageWidth="850" pageHeight="1100" math="0" shadow="0">
      <root>
        <mxCell id="0" />
        <mxCell id="1" parent="0" />
        <mxCell id="H8CEIzqAk9dEc6fAlXC8-2" value="" style="shape=image;html=1;verticalAlign=top;verticalLabelPosition=bottom;labelBackgroundColor=#ffffff;imageAspect=0;aspect=fixed;image=https://cdn1.iconfinder.com/data/icons/unicons-line-vol-5/24/robot-128.png" parent="1" vertex="1">
          <mxGeometry x="68.25" y="19" width="72" height="72" as="geometry" />
        </mxCell>
        <mxCell id="H8CEIzqAk9dEc6fAlXC8-6" value="" style="shape=mxgraph.signs.food.food_truck;html=1;pointerEvents=1;fillColor=#000000;strokeColor=none;verticalLabelPosition=bottom;verticalAlign=top;align=center;" parent="1" vertex="1">
          <mxGeometry x="80" y="121" width="100" height="50" as="geometry" />
        </mxCell>
        <mxCell id="H8CEIzqAk9dEc6fAlXC8-8" value="" style="shape=mxgraph.signs.people.man_2;html=1;pointerEvents=1;fillColor=#000000;strokeColor=none;verticalLabelPosition=bottom;verticalAlign=top;align=center;" parent="1" vertex="1">
          <mxGeometry x="88.51" y="200" width="31.49" height="80" as="geometry" />
        </mxCell>
        <mxCell id="JL-kAtFbKdr1hkxPQA-j-2" value="" style="verticalLabelPosition=bottom;verticalAlign=top;html=1;shape=mxgraph.basic.x;fillColor=#FF0000;strokeColor=#FF0000;fillStyle=solid;" parent="1" vertex="1">
          <mxGeometry x="440" y="25" width="51" height="60" as="geometry" />
        </mxCell>
        <mxCell id="JL-kAtFbKdr1hkxPQA-j-3" value="" style="shape=image;html=1;verticalAlign=top;verticalLabelPosition=bottom;labelBackgroundColor=#ffffff;imageAspect=0;aspect=fixed;image=https://cdn3.iconfinder.com/data/icons/flat-actions-icons-9/512/Tick_Mark-128.png" parent="1" vertex="1">
          <mxGeometry x="435.5" y="106" width="60" height="60" as="geometry" />
        </mxCell>
        <mxCell id="JL-kAtFbKdr1hkxPQA-j-10" value="" style="html=1;verticalLabelPosition=bottom;align=center;labelBackgroundColor=#ffffff;verticalAlign=top;strokeWidth=2;strokeColor=#000000;shadow=0;dashed=0;shape=mxgraph.ios7.icons.play;fillColor=#000000;" parent="1" vertex="1">
          <mxGeometry x="440" y="190" width="50" height="60" as="geometry" />
        </mxCell>
        <mxCell id="JL-kAtFbKdr1hkxPQA-j-11" value="" style="html=1;verticalLabelPosition=bottom;align=center;labelBackgroundColor=#ffffff;verticalAlign=top;strokeWidth=2;strokeColor=#000000;shadow=0;dashed=0;shape=mxgraph.ios7.icons.pause;pointerEvents=1;fillColor=#000000;" parent="1" vertex="1">
          <mxGeometry x="440" y="280" width="48.75" height="60" as="geometry" />
        </mxCell>
        <mxCell id="JL-kAtFbKdr1hkxPQA-j-17" value="" style="shape=image;html=1;verticalAlign=top;verticalLabelPosition=bottom;labelBackgroundColor=#ffffff;imageAspect=0;aspect=fixed;image=https://cdn2.iconfinder.com/data/icons/essential-web-1-1/50/hourlass-waiting-time-delay-minute-128.png;imageBackground=none;" parent="1" vertex="1">
          <mxGeometry x="430.5" y="360" width="70" height="70" as="geometry" />
        </mxCell>
        <mxCell id="JL-kAtFbKdr1hkxPQA-j-30" value="&lt;b&gt;&lt;font style=&quot;font-size: 15px;&quot;&gt;TransportTrolley&lt;/font&gt;&lt;/b&gt;" style="text;html=1;strokeColor=none;fillColor=none;align=center;verticalAlign=middle;whiteSpace=wrap;rounded=0;" parent="1" vertex="1">
          <mxGeometry x="220" y="40" width="140" height="30" as="geometry" />
        </mxCell>
        <mxCell id="JL-kAtFbKdr1hkxPQA-j-31" value="&lt;font size=&quot;1&quot;&gt;&lt;b style=&quot;font-size: 15px;&quot;&gt;FridgeTruck&lt;/b&gt;&lt;/font&gt;" style="text;html=1;strokeColor=none;fillColor=none;align=center;verticalAlign=middle;whiteSpace=wrap;rounded=0;" parent="1" vertex="1">
          <mxGeometry x="220" y="131" width="140" height="30" as="geometry" />
        </mxCell>
        <mxCell id="JL-kAtFbKdr1hkxPQA-j-32" value="&lt;font size=&quot;1&quot;&gt;&lt;b style=&quot;font-size: 15px;&quot;&gt;Service-manager&lt;/b&gt;&lt;/font&gt;" style="text;html=1;strokeColor=none;fillColor=none;align=center;verticalAlign=middle;whiteSpace=wrap;rounded=0;" parent="1" vertex="1">
          <mxGeometry x="220" y="220" width="140" height="30" as="geometry" />
        </mxCell>
        <mxCell id="JL-kAtFbKdr1hkxPQA-j-33" value="&lt;b style=&quot;font-size: 15px;&quot;&gt;Request Rejected&lt;br&gt;&lt;/b&gt;" style="text;html=1;strokeColor=none;fillColor=none;align=center;verticalAlign=middle;whiteSpace=wrap;rounded=0;" parent="1" vertex="1">
          <mxGeometry x="640" y="40" width="140" height="30" as="geometry" />
        </mxCell>
        <mxCell id="JL-kAtFbKdr1hkxPQA-j-34" value="&lt;font style=&quot;font-size: 15px;&quot;&gt;&lt;b&gt;Request Accepted&lt;br&gt;&lt;/b&gt;&lt;/font&gt;" style="text;html=1;strokeColor=none;fillColor=none;align=center;verticalAlign=middle;whiteSpace=wrap;rounded=0;" parent="1" vertex="1">
          <mxGeometry x="640" y="121" width="140" height="30" as="geometry" />
        </mxCell>
        <mxCell id="JL-kAtFbKdr1hkxPQA-j-35" value="&lt;font size=&quot;1&quot;&gt;&lt;b style=&quot;font-size: 15px;&quot;&gt;Running&lt;/b&gt;&lt;/font&gt;" style="text;html=1;strokeColor=none;fillColor=none;align=center;verticalAlign=middle;whiteSpace=wrap;rounded=0;" parent="1" vertex="1">
          <mxGeometry x="640" y="205" width="140" height="30" as="geometry" />
        </mxCell>
        <mxCell id="JL-kAtFbKdr1hkxPQA-j-36" value="&lt;font size=&quot;1&quot;&gt;&lt;b style=&quot;font-size: 15px;&quot;&gt;Stopped&lt;/b&gt;&lt;/font&gt;" style="text;html=1;strokeColor=none;fillColor=none;align=center;verticalAlign=middle;whiteSpace=wrap;rounded=0;" parent="1" vertex="1">
          <mxGeometry x="640" y="295" width="140" height="30" as="geometry" />
        </mxCell>
        <mxCell id="JL-kAtFbKdr1hkxPQA-j-37" value="&lt;font size=&quot;1&quot;&gt;&lt;b style=&quot;font-size: 15px;&quot;&gt;Waiting&lt;/b&gt;&lt;/font&gt;" style="text;html=1;strokeColor=none;fillColor=none;align=center;verticalAlign=middle;whiteSpace=wrap;rounded=0;" parent="1" vertex="1">
          <mxGeometry x="640" y="380" width="140" height="30" as="geometry" />
        </mxCell>
        <mxCell id="fDuQmGwQqxBRPXvYHHXC-1" value="" style="html=1;verticalLabelPosition=bottom;align=center;labelBackgroundColor=#ffffff;verticalAlign=top;strokeWidth=2;strokeColor=#000000;shadow=0;dashed=0;shape=mxgraph.ios7.icons.monitor;fillStyle=dashed;fillColor=#000000;" parent="1" vertex="1">
          <mxGeometry x="80" y="320" width="90" height="50" as="geometry" />
        </mxCell>
        <mxCell id="fDuQmGwQqxBRPXvYHHXC-2" value="&lt;div&gt;&lt;font size=&quot;1&quot;&gt;&lt;b style=&quot;font-size: 15px;&quot;&gt;ServiceAccessGUI&lt;/b&gt;&lt;/font&gt;&lt;/div&gt;" style="text;html=1;strokeColor=none;fillColor=none;align=center;verticalAlign=middle;whiteSpace=wrap;rounded=0;" parent="1" vertex="1">
          <mxGeometry x="220" y="330" width="140" height="30" as="geometry" />
        </mxCell>
      </root>
    </mxGraphModel>
  </diagram>
</mxfile>
